<?xml version="1.0" encoding="UTF-8" standalone="no"?>
<!-- Created with Inkscape (http://www.inkscape.org/) -->

<svg
   xmlns:dc="http://purl.org/dc/elements/1.1/"
   xmlns:cc="http://creativecommons.org/ns#"
   xmlns:rdf="http://www.w3.org/1999/02/22-rdf-syntax-ns#"
   xmlns:svg="http://www.w3.org/2000/svg"
   xmlns="http://www.w3.org/2000/svg"
   xmlns:sodipodi="http://sodipodi.sourceforge.net/DTD/sodipodi-0.dtd"
   xmlns:inkscape="http://www.inkscape.org/namespaces/inkscape"
   width="800px"
   height="600px"
   id="svg2987"
   version="1.1"
   inkscape:version="0.48.2 r9819"
   inkscape:export-filename="/Users/blackpearl/Documents/projects/NirmanCraftLogo/bg.png"
   inkscape:export-xdpi="300"
   inkscape:export-ydpi="300"
   sodipodi:docname="New document 2">
  <defs
     id="defs2989">
    <inkscape:path-effect
       effect="skeletal"
       id="path-effect3944"
       is_visible="true"
       pattern="M 0,0 0,10 10,5 z"
       copytype="single_stretched"
       prop_scale="1"
       scale_y_rel="false"
       spacing="0"
       normal_offset="0"
       tang_offset="0"
       prop_units="false"
       vertical_pattern="false"
       fuse_tolerance="0" />
    <inkscape:path-effect
       effect="spiro"
       id="path-effect3942"
       is_visible="true" />
    <inkscape:path-effect
       effect="skeletal"
       id="path-effect3888"
       is_visible="true"
       pattern="M 0,0 0,10 10,5 z"
       copytype="single_stretched"
       prop_scale="1"
       scale_y_rel="false"
       spacing="0"
       normal_offset="0"
       tang_offset="0"
       prop_units="false"
       vertical_pattern="false"
       fuse_tolerance="0" />
    <inkscape:path-effect
       effect="spiro"
       id="path-effect3886"
       is_visible="true" />
    <inkscape:path-effect
       effect="skeletal"
       id="path-effect3838"
       is_visible="true"
       pattern="M 0,0 0,10 10,5 z"
       copytype="single_stretched"
       prop_scale="1"
       scale_y_rel="false"
       spacing="0"
       normal_offset="0"
       tang_offset="0"
       prop_units="false"
       vertical_pattern="false"
       fuse_tolerance="0" />
    <inkscape:path-effect
       effect="spiro"
       id="path-effect3836"
       is_visible="true" />
    <inkscape:path-effect
       effect="skeletal"
       id="path-effect3831"
       is_visible="true"
       pattern="M 0,0 0,10 10,5 z"
       copytype="single_stretched"
       prop_scale="1"
       scale_y_rel="false"
       spacing="0"
       normal_offset="0"
       tang_offset="0"
       prop_units="false"
       vertical_pattern="false"
       fuse_tolerance="0" />
    <inkscape:path-effect
       effect="spiro"
       id="path-effect3829"
       is_visible="true" />
    <inkscape:path-effect
       effect="skeletal"
       id="path-effect3812"
       is_visible="true"
       pattern="m -327.24849,6.9958104 0,10.0000006 10,-5 z"
       copytype="single_stretched"
       prop_scale="1"
       scale_y_rel="false"
       spacing="0"
       normal_offset="0"
       tang_offset="0"
       prop_units="false"
       vertical_pattern="false"
       fuse_tolerance="0" />
    <inkscape:path-effect
       effect="spiro"
       id="path-effect3810"
       is_visible="true" />
    <inkscape:path-effect
       effect="skeletal"
       id="path-effect3806"
       is_visible="true"
       pattern="m -10.882376,20.21012 0,10 10.00000391,-5 z"
       copytype="single_stretched"
       prop_scale="1"
       scale_y_rel="false"
       spacing="0"
       normal_offset="0"
       tang_offset="0"
       prop_units="false"
       vertical_pattern="false"
       fuse_tolerance="0" />
    <inkscape:path-effect
       effect="spiro"
       id="path-effect3804"
       is_visible="true" />
    <inkscape:path-effect
       effect="skeletal"
       id="path-effect3800"
       is_visible="true"
       pattern="M 0,0 0,10 10,5 z"
       copytype="single_stretched"
       prop_scale="1"
       scale_y_rel="false"
       spacing="0"
       normal_offset="0"
       tang_offset="0"
       prop_units="false"
       vertical_pattern="false"
       fuse_tolerance="0" />
    <inkscape:path-effect
       effect="spiro"
       id="path-effect3798"
       is_visible="true" />
    <inkscape:path-effect
       effect="skeletal"
       id="path-effect3794"
       is_visible="true"
       pattern="m -67.626172,24.096682 0,10 10,-5 z"
       copytype="single_stretched"
       prop_scale="1"
       scale_y_rel="false"
       spacing="0"
       normal_offset="0"
       tang_offset="0"
       prop_units="false"
       vertical_pattern="false"
       fuse_tolerance="0" />
    <inkscape:path-effect
       effect="spiro"
       id="path-effect3792"
       is_visible="true" />
    <inkscape:path-effect
       effect="skeletal"
       id="path-effect3788"
       is_visible="true"
       pattern="M 0,5 C 0,2.24 2.24,0 5,0 7.76,0 10,2.24 10,5 10,7.76 7.76,10 5,10 2.24,10 0,7.76 0,5 z"
       copytype="single_stretched"
       prop_scale="1"
       scale_y_rel="false"
       spacing="0"
       normal_offset="0"
       tang_offset="0"
       prop_units="false"
       vertical_pattern="false"
       fuse_tolerance="0" />
    <inkscape:path-effect
       effect="spiro"
       id="path-effect3786"
       is_visible="true" />
    <inkscape:path-effect
       effect="skeletal"
       id="path-effect3782"
       is_visible="true"
       pattern="M 0,5 C 0,2.24 2.24,0 5,0 7.76,0 10,2.24 10,5 10,7.76 7.76,10 5,10 2.24,10 0,7.76 0,5 z"
       copytype="single_stretched"
       prop_scale="1"
       scale_y_rel="false"
       spacing="0"
       normal_offset="0"
       tang_offset="0"
       prop_units="false"
       vertical_pattern="false"
       fuse_tolerance="0" />
    <inkscape:path-effect
       effect="spiro"
       id="path-effect3780"
       is_visible="true" />
    <inkscape:path-effect
       effect="skeletal"
       id="path-effect3776"
       is_visible="true"
       pattern="m -3.1092493,-9.3277479 0,10.00000004 10,-5.00000004 z"
       copytype="single_stretched"
       prop_scale="1"
       scale_y_rel="false"
       spacing="0"
       normal_offset="0"
       tang_offset="0"
       prop_units="false"
       vertical_pattern="false"
       fuse_tolerance="0" />
    <inkscape:path-effect
       effect="spiro"
       id="path-effect3774"
       is_visible="true" />
    <inkscape:path-effect
       effect="skeletal"
       id="path-effect3770"
       is_visible="true"
       pattern="M 0,0 0,10 10,5 z"
       copytype="single_stretched"
       prop_scale="1"
       scale_y_rel="false"
       spacing="0"
       normal_offset="0"
       tang_offset="0"
       prop_units="false"
       vertical_pattern="false"
       fuse_tolerance="0" />
    <inkscape:path-effect
       effect="spiro"
       id="path-effect3768"
       is_visible="true" />
  </defs>
  <sodipodi:namedview
     id="base"
     pagecolor="#ffffff"
     bordercolor="#666666"
     borderopacity="1.0"
     inkscape:pageopacity="0.0"
     inkscape:pageshadow="2"
     inkscape:zoom="0.85498531"
     inkscape:cx="384.62044"
     inkscape:cy="313.35811"
     inkscape:current-layer="layer1"
     inkscape:document-units="px"
     showgrid="false"
     showguides="true"
     inkscape:guide-bbox="true"
     inkscape:window-width="1280"
     inkscape:window-height="752"
     inkscape:window-x="0"
     inkscape:window-y="0"
     inkscape:window-maximized="1">
    <inkscape:grid
       type="xygrid"
       id="grid3925" />
  </sodipodi:namedview>
  <metadata
     id="metadata2992">
    <rdf:RDF>
      <cc:Work
         rdf:about="">
        <dc:format>image/svg+xml</dc:format>
        <dc:type
           rdf:resource="http://purl.org/dc/dcmitype/StillImage" />
        <dc:title></dc:title>
      </cc:Work>
    </rdf:RDF>
  </metadata>
  <g
     id="layer1"
     inkscape:label="Layer 1"
     inkscape:groupmode="layer"
     style="display:inline">
    <rect
       style="fill:#a2cd00;fill-opacity:1;stroke:none"
       id="rect2995"
       width="805"
       height="285.86505"
       x="-1.3053964"
       y="128.84311" />
    <path
       style="fill:#2c6700;fill-opacity:1;stroke:none"
       d="m 254.05722,253.34073 c 0,0 -3.43067,-6.70883 -2.47688,-10.3371 0.9538,-3.62827 8.09149,-8.69781 8.09149,-8.69781 0,0 4.61645,8.61588 3.52607,12.45085 -1.09037,3.83495 -8.75205,6.74659 -8.75205,6.74659 0,0 2.94831,-5.80255 2.62156,-8.62012 -1.84234,2.41989 -3.01019,8.45759 -3.01019,8.45759 z"
       id="path3946"
       inkscape:connector-curvature="0"
       sodipodi:nodetypes="czczccc" />
    <path
       style="fill:#2c6700;fill-opacity:1;stroke:none"
       d="m 252.54062,187.3265 c 0,0 -0.27715,-4.67302 1.17112,-6.49909 1.44827,-1.82607 6.77435,-2.92853 6.77435,-2.92853 0,0 0.47572,6.05393 -1.10185,7.9635 -1.57755,1.90957 -6.6631,1.6536 -6.6631,1.6536 0,0 3.12567,-2.56519 3.64308,-4.24968 -1.65215,0.91683 -3.8236,4.0602 -3.8236,4.0602 z"
       id="path3946-2"
       inkscape:connector-curvature="0"
       sodipodi:nodetypes="czczccc" />
    <path
       style="fill:#2c6700;fill-opacity:1;stroke:none"
       d="m 391.00539,322.53284 c 0,0 -2.40502,-7.14099 -0.92718,-10.58919 1.47784,-3.44819 9.28442,-7.41104 9.28442,-7.41104 0,0 3.29696,9.20191 1.65358,12.83443 -1.64338,3.63251 -9.65037,5.38381 -9.65037,5.38381 0,0 3.77087,-5.30496 3.86272,-8.13993 -2.1787,2.12212 -4.22317,7.92192 -4.22317,7.92192 z"
       id="path3946-5"
       inkscape:connector-curvature="0"
       sodipodi:nodetypes="czczccc" />
    <path
       style="fill:#2c6700;fill-opacity:1;stroke:none"
       d="m 502.88328,240.04084 c 0,0 -6.02703,-4.52247 -6.76242,-8.20123 -0.73539,-3.67876 3.45315,-11.36661 3.45315,-11.36661 0,0 7.92949,5.71561 8.63287,9.64004 0.70338,3.92442 -4.90306,9.90328 -4.90306,9.90328 0,0 0.10249,-6.50781 -1.42771,-8.89611 -0.59335,2.98296 1.00717,8.92063 1.00717,8.92063 z"
       id="path3946-0"
       inkscape:connector-curvature="0"
       sodipodi:nodetypes="czczccc" />
    <path
       style="fill:#2c6700;fill-opacity:1;stroke:none"
       d="m 111.65512,352.96237 c 0,0 -6.02703,-4.52247 -6.76242,-8.20123 -0.73539,-3.67876 3.45315,-11.36661 3.45315,-11.36661 0,0 7.92949,5.71561 8.63287,9.64004 0.70338,3.92442 -4.90306,9.90328 -4.90306,9.90328 0,0 0.10249,-6.50781 -1.42771,-8.89611 -0.59335,2.98296 1.00717,8.92063 1.00717,8.92063 z"
       id="path3946-28"
       inkscape:connector-curvature="0"
       sodipodi:nodetypes="czczccc" />
    <path
       style="fill:#2c6700;fill-opacity:1;stroke:none"
       d="m 555.34682,302.99709 c 0,0 -6.02703,-4.52247 -6.76242,-8.20123 -0.73539,-3.67876 3.45315,-11.36661 3.45315,-11.36661 0,0 7.92949,5.71561 8.63287,9.64004 0.70338,3.92442 -4.90306,9.90328 -4.90306,9.90328 0,0 0.10249,-6.50781 -1.42771,-8.89611 -0.59335,2.98296 1.00717,8.92063 1.00717,8.92063 z"
       id="path3946-3"
       inkscape:connector-curvature="0"
       sodipodi:nodetypes="czczccc" />
    <path
       style="fill:#2c6700;fill-opacity:1;stroke:none"
       d="m 324.79157,229.05166 c 0,0 -1.95035,0.46759 -2.5856,5.59422 -0.63525,5.12665 1.98716,5.58675 2.70977,5.7743 0.72272,0.18712 2.34821,0.57354 3.63872,-1.69426 1.18902,-3.59441 -2.04831,-3.63343 -2.8251,-4.80484 -1.29089,-1.26903 -0.93779,-4.86942 -0.93779,-4.86942 z"
       id="path3994"
       inkscape:connector-curvature="0"
       sodipodi:nodetypes="czzccc" />
    <path
       style="fill:#2c6700;fill-opacity:1;stroke:none"
       d="m 346.04424,280.94647 c 0,0 -1.95035,0.46759 -2.5856,5.59422 -0.63525,5.12665 1.98716,5.58675 2.70977,5.7743 0.72272,0.18712 2.34821,0.57354 3.63872,-1.69426 1.18902,-3.59441 -2.04831,-3.63343 -2.8251,-4.80484 -1.29089,-1.26903 -0.93779,-4.86942 -0.93779,-4.86942 z"
       id="path3994-0"
       inkscape:connector-curvature="0"
       sodipodi:nodetypes="czzccc" />
    <path
       sodipodi:type="spiral"
       style="fill:none;stroke:#2c6700;stroke-width:1;stroke-linecap:butt;stroke-linejoin:round;stroke-miterlimit:4;stroke-opacity:1;stroke-dasharray:none"
       id="path4015"
       sodipodi:cx="64.493858"
       sodipodi:cy="196.91336"
       sodipodi:expansion="1"
       sodipodi:revolution="3.1676474"
       sodipodi:radius="29.186232"
       sodipodi:argument="-18.537514"
       sodipodi:t0="0"
       d="m 64.493858,196.91336 c 1.318977,0.42548 0.0772,1.98787 -0.707169,2.19223 -2.125601,0.55379 -3.684535,-1.73368 -3.677281,-3.60657 0.01297,-3.35015 3.410606,-5.48209 6.505959,-5.16234 4.542556,0.46926 7.315992,5.10417 6.647393,9.40536 -0.891138,5.73281 -6.802817,9.16435 -12.30475,8.13245 -6.923621,-1.29855 -11.019994,-8.50371 -9.617504,-15.20415 1.698604,-8.11513 10.205817,-12.87981 18.10354,-11.10256 9.307193,2.09443 14.742239,11.90868 12.587615,21.00294 -2.487598,10.49967 -13.612048,16.60641 -23.902329,14.07267 -11.692472,-2.879 -18.471812,-15.31577 -15.557727,-26.80173 3.269162,-12.8855 17.019754,-20.33809 29.701119,-17.04278 14.078719,3.65843 22.20505,18.72394 18.527839,32.60052 -2.599395,9.80925 -10.569493,17.52989 -20.354068,20.08671"
       transform="matrix(0.47025892,0,0,0.47025892,65.082688,133.29179)" />
    <path
       sodipodi:type="spiral"
       style="fill:none;stroke:#2c6700;stroke-width:1;stroke-linecap:butt;stroke-linejoin:round;stroke-miterlimit:4;stroke-opacity:1;stroke-dasharray:none;display:inline"
       id="path4015-3"
       sodipodi:cx="64.493858"
       sodipodi:cy="196.91336"
       sodipodi:expansion="1"
       sodipodi:revolution="3.1676474"
       sodipodi:radius="29.186232"
       sodipodi:argument="-18.537514"
       sodipodi:t0="0"
       d="m 64.493858,196.91336 c 1.318977,0.42548 0.0772,1.98787 -0.707169,2.19223 -2.125601,0.55379 -3.684535,-1.73368 -3.677281,-3.60657 0.01297,-3.35015 3.410606,-5.48209 6.505959,-5.16234 4.542556,0.46926 7.315992,5.10417 6.647393,9.40536 -0.891138,5.73281 -6.802817,9.16435 -12.30475,8.13245 -6.923621,-1.29855 -11.019994,-8.50371 -9.617504,-15.20415 1.698604,-8.11513 10.205817,-12.87981 18.10354,-11.10256 9.307193,2.09443 14.742239,11.90868 12.587615,21.00294 -2.487598,10.49967 -13.612048,16.60641 -23.902329,14.07267 -11.692472,-2.879 -18.471812,-15.31577 -15.557727,-26.80173 3.269162,-12.8855 17.019754,-20.33809 29.701119,-17.04278 14.078719,3.65843 22.20505,18.72394 18.527839,32.60052 -2.599395,9.80925 -10.569493,17.52989 -20.354068,20.08671"
       transform="matrix(0.47025892,0,0,0.47025892,558.37066,248.55897)" />
    <path
       sodipodi:type="spiral"
       style="fill:none;stroke:#2c6700;stroke-width:1;stroke-linecap:butt;stroke-linejoin:round;stroke-miterlimit:4;stroke-opacity:1;stroke-dasharray:none;display:inline"
       id="path4015-37"
       sodipodi:cx="64.493858"
       sodipodi:cy="196.91336"
       sodipodi:expansion="1"
       sodipodi:revolution="3.1676474"
       sodipodi:radius="29.186232"
       sodipodi:argument="-18.537514"
       sodipodi:t0="0"
       d="m 64.493858,196.91336 c 1.318977,0.42548 0.0772,1.98787 -0.707169,2.19223 -2.125601,0.55379 -3.684535,-1.73368 -3.677281,-3.60657 0.01297,-3.35015 3.410606,-5.48209 6.505959,-5.16234 4.542556,0.46926 7.315992,5.10417 6.647393,9.40536 -0.891138,5.73281 -6.802817,9.16435 -12.30475,8.13245 -6.923621,-1.29855 -11.019994,-8.50371 -9.617504,-15.20415 1.698604,-8.11513 10.205817,-12.87981 18.10354,-11.10256 9.307193,2.09443 14.742239,11.90868 12.587615,21.00294 -2.487598,10.49967 -13.612048,16.60641 -23.902329,14.07267 -11.692472,-2.879 -18.471812,-15.31577 -15.557727,-26.80173 3.269162,-12.8855 17.019754,-20.33809 29.701119,-17.04278 14.078719,3.65843 22.20505,18.72394 18.527839,32.60052 -2.599395,9.80925 -10.569493,17.52989 -20.354068,20.08671"
       transform="matrix(-0.13603155,0.72495773,-0.72495773,-0.13603155,598.69026,154.31488)" />
    <path
       sodipodi:type="spiral"
       style="fill:none;stroke:#2c6700;stroke-width:1px;stroke-linecap:butt;stroke-linejoin:miter;stroke-opacity:1"
       id="path4042"
       sodipodi:cx="608.44867"
       sodipodi:cy="208.79381"
       sodipodi:expansion="1"
       sodipodi:revolution="2.1700001"
       sodipodi:radius="55.159225"
       sodipodi:argument="-18.332119"
       sodipodi:t0="0"
       d="m 608.44867,208.79381 c 3.32288,1.89126 -0.90999,5.41226 -3.1434,5.52285 -6.05241,0.29968 -8.97569,-6.75546 -7.9023,-11.80966 1.92006,-9.04077 12.29592,-12.88698 20.47591,-10.28174 12.00447,3.8233 16.88706,17.90173 12.66118,29.14216 -5.63242,14.98173 -23.52944,20.92333 -37.80841,15.04063 -17.96862,-7.40278 -24.978,-29.1673 -17.42007,-46.47466 9.15366,-20.96154 34.81079,-29.04326 55.14091,-19.79952 23.95835,10.89343 33.11516,40.4578 22.17896,63.80717 -8.16609,17.43505 -25.88081,28.88768 -44.99815,30.00597"
       transform="matrix(-0.03808903,0.30914795,0.30914795,0.03808903,653.7763,74.032331)" />
  </g>
  <g
     inkscape:groupmode="layer"
     id="layer2"
     inkscape:label="curves">
    <g
       id="g3910"
       transform="matrix(1.0298513,0,0,1.0770755,0.13559735,-10.840087)">
      <path
         style="fill:#2c6700;fill-opacity:1;fill-rule:evenodd;stroke:none"
         d="m -1.5659547,315.30813 0.1554423,14.99385 c 11.2116772,-24.70651 37.4605754,-51.94324 62.0433484,-63.6447 24.574908,-11.71818 53.515624,-14.48227 79.948614,-7.57714 25.69416,6.60409 48.63847,22.07529 71.42292,37.41446 1e-5,1e-5 3e-5,2e-5 4e-5,3e-5 22.7345,15.44586 46.45744,31.28527 73.76843,38.52267 24.91729,6.49402 51.3101,5.18401 75.93522,-1.32631 1e-5,0 2e-5,0 3e-5,0 24.61454,-6.50083 47.57212,-17.91682 68.87516,-31.42057 21.30627,-13.49676 41.094,-29.04432 60.79684,-44.48145 19.70366,-15.42896 39.40585,-30.81453 60.51901,-43.98029 23.10805,-14.40114 48.05027,-26.21439 74.56168,-31.9756 2e-5,-1e-5 4e-5,-1e-5 6e-5,-1e-5 26.49812,-5.75436 54.72874,-5.31208 80.10837,4.12965 25.35253,9.42995 47.7218,28.31033 58.71073,53.05519 10e-6,2e-5 2e-5,3e-5 3e-5,5e-5 5.50417,12.37689 8.1536,26.07962 7.27409,39.61163 -0.87863,13.52998 -5.31526,26.88517 -13.03807,38.05634 -12.11683,17.53803 -32.52653,29.23392 -53.87965,30.79464 -21.35291,1.56385 -43.34085,-7.03176 -58.01109,-22.75391 14.52578,15.85572 36.49843,24.71998 58.05145,23.34277 21.55281,-1.38034 42.31008,-12.97954 54.80731,-30.70788 7.95305,-11.28878 12.6029,-24.83049 13.62269,-38.62409 1.01898,-13.79271 -1.54452,-27.79646 -7.05763,-40.49673 -10e-6,-2e-5 -10e-6,-4e-5 -2e-5,-5e-5 -11.03521,-25.38567 -33.64502,-44.92053 -59.53392,-54.78953 -25.88241,-9.86497 -54.6919,-10.63242 -81.76982,-4.97833 -27.07143,5.64869 -52.54016,17.39151 -76.04621,31.77288 -21.47826,13.13288 -41.46326,28.43505 -61.3072,43.69215 -19.85164,15.25427 -39.64784,30.52757 -60.76238,43.62018 -21.11353,13.08297 -43.63379,24.05287 -67.48561,30.08328 -2e-5,0 -4e-5,0 -5e-5,1e-5 -23.83712,6.01984 -49.13606,7.08265 -72.58336,0.67472 -25.78442,-6.92655 -48.57559,-22.62396 -71.219,-38.17143 -1e-5,-10e-6 -3e-5,-2e-5 -4e-5,-3e-5 -22.59342,-15.65412 -46.17792,-31.70391 -73.58951,-39.2247 -2e-5,-1e-5 -4e-5,-1e-5 -6e-5,-2e-5 -28.34992,-7.66583 -59.328694,-5.02604 -86.045752,7.39318 -26.709192,12.43593 -45.79297,30.20183 -58.2720927,56.99509 z"
         id="path3766"
         inkscape:connector-curvature="0"
         sodipodi:nodetypes="cccccccccccccccccccccccccccccccccccccccc" />
      <path
         inkscape:connector-curvature="0"
         id="path3772"
         d="m -1.1611418,272.46571 0.23875663,11.04183 C 16.263296,266.04055 42.743449,250.94226 66.499261,244.61158 c 23.754269,-6.33661 49.308959,-6.19738 73.065549,0.43803 15.09204,4.19555 29.49834,11.02385 43.35902,18.88928 1e-5,10e-6 2e-5,10e-6 2e-5,10e-6 13.95897,7.93174 27.40497,16.96095 41.08867,25.79307 1e-5,0 1e-5,1e-5 2e-5,1e-5 13.7118,8.86002 27.75293,17.47431 42.69046,24.51247 14.7861,6.97572 32.62545,9.48773 49.0229,11.45823 22.17737,2.61832 42.61808,-1.27929 63.40986,-8.76314 20.78601,-7.47634 39.96793,-15.54544 57.85759,-28.18096 17.90003,-12.63625 34.60643,-26.73377 51.38481,-40.60685 1e-5,-10e-6 2e-5,-2e-5 3e-5,-3e-5 16.76467,-13.85583 33.66183,-27.54199 51.85477,-39.2943 34.4883,-22.28839 73.72744,-37.19653 114.32236,-44.07887 40.59513,-6.88114 82.64922,-5.75459 122.75699,3.96873 -39.99139,-10.19142 -82.1295,-11.8339 -122.99048,-5.39681 -40.86118,6.43589 -80.54813,20.96694 -115.64529,43.06703 -18.50032,11.65427 -35.67076,25.2229 -52.61203,38.90201 -16.96087,13.68908 -33.75867,27.53618 -51.59916,39.81229 -17.83295,12.26437 -36.7728,19.91582 -57.05343,26.91842 -20.27253,6.99425 -39.92009,10.53013 -60.9487,7.75066 -15.55445,-2.0213 -32.68389,-4.5288 -46.9532,-11.43262 -14.42709,-6.98907 -28.09634,-15.61368 -41.62113,-24.56412 -1e-5,-1e-5 -2e-5,-2e-5 -3e-5,-2e-5 -13.50668,-8.94813 -26.95595,-18.20227 -41.14342,-26.49496 -1e-5,-1e-5 -2e-5,-2e-5 -3e-5,-2e-5 -14.08782,-8.24491 -28.99687,-15.49523 -44.92311,-20.16126 -2e-5,-1e-5 -3e-5,-1e-5 -5e-5,-1e-5 -25.11257,-7.32596 -52.183739,-7.81182 -77.61646,-1.35177 -25.431178,6.46597 -46.683438,18.12945 -65.3669318,36.66963 z"
         style="fill:#2c6700;fill-opacity:1;fill-rule:evenodd;stroke:none"
         sodipodi:nodetypes="cccccccccccccccccccccccccccccccc" />
      <path
         sodipodi:nodetypes="cccccccccccccccccccccc"
         inkscape:connector-curvature="0"
         id="path3790"
         d="m 34.868092,271.40685 4.138593,7.40878 c 20.379157,-11.86164 46.354083,-14.49806 69.678845,-9.28194 23.32933,5.19719 44.80043,19.59039 58.57246,39.51665 l 0,10e-6 c 6.01908,8.78047 10.70569,18.6947 11.27084,29.11181 0.29701,5.20364 -0.40384,10.49133 -2.33182,15.30667 -1e-5,0 -1e-5,10e-6 -1e-5,10e-6 -1.92506,4.80965 -5.07634,9.18397 -9.22088,12.28545 -5.65894,4.27393 -13.15732,6.06883 -20.39099,5.45474 -7.24645,-0.61451 -14.26876,-3.58906 -20.27359,-7.90428 -11.12195,-8.00099 -18.822,-20.84474 -20.59706,-34.63054 1.31707,13.83707 8.60853,27.12667 19.77072,35.73896 6.01932,4.64903 13.20904,7.98442 20.88091,8.91311 7.68061,0.9287 15.80798,-0.72632 22.29529,-5.24355 4.71708,-3.31235 8.38483,-8.01327 10.68833,-13.29248 0,-1e-5 0,-1e-5 0,-2e-5 2.30088,-5.27425 3.28936,-11.06316 3.13838,-16.79033 -0.33075,-11.44273 -4.91082,-22.32797 -11.02758,-31.75125 0,0 0,-10e-6 -1e-5,-10e-6 -13.82456,-21.46856 -35.97712,-37.55347 -61.00914,-44.03026 -25.036599,-6.45786 -52.520587,-3.19671 -75.583288,9.18847 z"
         style="fill:#2c6700;fill-opacity:1;fill-rule:evenodd;stroke:none" />
      <path
         sodipodi:nodetypes="cccccccccccccccccccccccccc"
         inkscape:connector-curvature="0"
         id="path3796"
         d="m 210.27597,272.29038 -3.91254,5.88018 c 19.63994,13.18682 40.9135,23.40741 63.90709,28.27971 22.99238,4.87772 46.86668,5.44499 69.94073,1.40159 0,-10e-6 10e-6,-10e-6 2e-5,-10e-6 14.13811,-2.45618 28.21817,-6.71907 40.72178,-14.13899 12.52548,-7.42352 23.28962,-18.29716 29.1753,-31.7113 4.52355,-10.37157 5.92267,-22.03347 3.88877,-33.09645 0,-1e-5 0,-1e-5 0,-2e-5 -2.03816,-11.06417 -7.52372,-21.42277 -15.54997,-29.20036 -8.02988,-7.77602 -18.55054,-12.87765 -29.56141,-14.25548 l -2e-5,-1e-5 c -11.01229,-1.37493 -22.42265,1.01672 -31.82819,6.73889 -13.39008,8.15431 -22.25316,23.13305 -23.02335,38.58852 1.15693,-15.43134 10.37275,-29.98147 23.61539,-37.5881 9.30642,-5.35134 20.43831,-7.36236 30.96681,-5.77848 10.53076,1.5811 20.4566,6.73974 27.86134,14.27937 0,1e-5 1e-5,1e-5 1e-5,1e-5 7.40893,7.53862 12.3163,17.4604 13.95868,27.82716 l 0,1e-5 c 1.64676,10.36861 0.0413,21.21069 -4.36682,30.66548 -5.6841,12.26817 -16.0387,22.08662 -27.88725,28.78215 -11.87488,6.70172 -25.35334,10.35708 -39.02261,12.42653 0,0 -1e-5,0 -2e-5,0 -22.30287,3.34166 -45.21261,2.19579 -67.07429,-3.01202 -21.86047,-5.21323 -43.60129,-13.17682 -61.80945,-26.08838 z"
         style="fill:#2c6700;fill-opacity:1;fill-rule:evenodd;stroke:none" />
      <path
         sodipodi:nodetypes="ccccccccccccccccccccccccc"
         inkscape:connector-curvature="0"
         id="path3802"
         d="m 394.84168,315.79013 -7.29292,7.48148 c 29.42595,14.61467 63.4244,25.48093 96.65033,30.00678 24.72299,3.41689 50.67991,3.72719 74.79023,-3.04942 11.13904,-3.13995 21.81375,-7.87014 30.87217,-14.47904 9.0672,-6.61329 16.3898,-15.19371 20.3563,-24.96417 3.96897,-9.782 4.34389,-20.73388 0.35217,-30.47698 -4.00296,-9.75231 -12.56331,-18.05002 -23.41953,-21.90235 l -2e-5,0 c -9.15665,-3.23366 -19.66253,-3.17716 -28.69279,0.0608 l -2e-5,1e-5 c -6.71111,2.40805 -12.57645,6.52187 -16.71487,11.68665 -4.13797,5.16506 -6.53287,11.36067 -6.84454,17.61778 0.52051,-6.24638 3.11656,-12.32395 7.35239,-17.2937 4.23538,-4.97004 10.10464,-8.82593 16.66458,-10.9835 8.81862,-2.90257 18.90158,-2.66138 27.42411,0.61365 l 10e-6,1e-5 c 10.12111,3.87061 17.87228,11.95225 21.29992,21.09101 l 1e-5,10e-6 c 3.44162,9.15492 2.6832,19.36867 -1.26769,28.33146 -3.95488,8.97793 -11.08896,16.77119 -19.71927,22.73022 -8.64056,5.96449 -18.8307,10.11781 -29.45178,12.83627 l -2e-5,0 c -23.00033,5.90681 -47.76236,4.84242 -71.61561,1.00975 -32.07199,-5.21926 -62.98267,-15.56605 -90.74316,-30.31672 z"
         style="fill:#2c6700;fill-opacity:1;fill-rule:evenodd;stroke:none" />
      <path
         sodipodi:nodetypes="ccccccccccccccccccccccccccccccccc"
         inkscape:connector-curvature="0"
         id="path3808"
         d="m 124.29407,233.62282 -6.05156,4.29195 c 15.97676,5.95919 34.27792,3.87684 48.29795,-5.21327 7.87968,-5.18133 14.10281,-12.09024 19.40449,-19.28575 5.31883,-7.17314 9.87364,-14.6256 14.95407,-21.52241 l 0,-1e-5 c 5.09466,-6.87821 10.73863,-13.33261 17.68817,-17.93952 6.92909,-4.57897 15.28386,-7.41462 23.46424,-6.46406 4.77553,0.53669 9.46296,2.32783 13.2873,5.28736 l 0,1e-5 c 2.95999,2.30124 5.43908,5.30559 6.68353,8.80402 1.24018,3.48234 1.25588,7.51696 -0.39237,10.83629 0,1e-5 0,1e-5 0,1e-5 -1.18106,2.39265 -3.21734,4.42564 -5.7134,5.42123 -2.4875,0.99619 -5.46691,0.94515 -7.86321,-0.33638 -2.53809,-1.34652 -4.36787,-4.08773 -4.61821,-7.02203 -0.25364,-2.93409 1.07816,-6.01864 3.46099,-7.86904 -2.46266,1.74274 -3.98791,4.80799 -3.86229,7.89432 0.12892,3.08613 1.90535,6.08756 4.62535,7.69771 2.5701,1.51111 5.82424,1.74619 8.67258,0.7442 10e-6,-1e-5 10e-6,-1e-5 2e-5,-1e-5 2.84182,-1.00337 5.23075,-3.14545 6.6849,-5.80696 0,-1e-5 0,-1e-5 1e-5,-1e-5 2.00662,-3.69049 2.24729,-8.20206 0.98934,-12.22005 -1.25473,-4.00504 -3.83421,-7.49993 -7.01913,-10.17745 l -10e-6,0 c -4.09057,-3.45333 -9.17374,-5.68951 -14.49278,-6.5204 -9.10732,-1.39152 -18.49144,1.20092 -26.29532,5.96484 -7.78803,4.73891 -14.18499,11.33295 -19.75148,18.27068 0,0 -1e-5,0 -1e-5,1e-5 -5.58097,6.91945 -10.47942,14.18434 -15.86274,20.79592 -5.4002,6.58888 -11.30167,12.66301 -18.24174,16.69658 -12.10325,7.15329 -25.44604,13.09245 -38.04869,7.67222 z"
         style="fill:#2c6700;fill-opacity:1;fill-rule:evenodd;stroke:none" />
      <path
         sodipodi:nodetypes="ccccscccccccccccccccccccccccccccccc"
         inkscape:connector-curvature="0"
         id="path3827"
         d="m 542.72363,214.66719 1.81422,2.69735 c 22.01828,-12.47211 48.86356,-20.88894 74.08669,-23.93926 20.76964,-2.46151 44.45194,0.0112 63.63783,7.51773 9.47529,3.68958 18.91211,10.27091 26.34792,17.10502 7.43006,6.82887 14.26002,17.15839 17.7969,26.55877 4.24996,16.39609 4.58576,26.71353 -0.84736,39.2061 -4.74783,10.94403 -16.28648,21.30113 -27.48196,25.75412 -11.19534,4.46677 -25.0599,4.6808 -36.36514,0.18461 -13.53046,-5.39604 -24.27045,-18.88423 -28.62428,-32.92635 l 0,-3e-5 c -4.07728,-9.20549 -3.81327,-20.37373 0.76328,-29.42887 4.57375,-9.04062 13.4423,-15.93657 23.4324,-18.12981 0,-1e-5 10e-6,-1e-5 2e-5,-1e-5 6.23674,-1.36841 12.92356,-0.96971 18.84253,1.46821 1e-5,0 2e-5,0 2e-5,1e-5 5.91516,2.43465 11.05038,6.94813 13.92916,12.69497 3.00344,5.98457 3.47558,13.2492 1.23574,19.61905 -2.23853,6.37032 -7.17185,11.79439 -13.36099,14.6315 6.24346,-2.71549 11.33326,-8.06508 13.73667,-14.49527 2.40211,-6.43067 2.08666,-13.86007 -0.8935,-20.1065 -2.8633,-5.99046 -8.0669,-10.77835 -14.18644,-13.43307 -6.1178,-2.65233 -13.06984,-3.22289 -19.62431,-1.91188 -10e-6,0 -2e-5,0 -3e-5,0 -10.51115,2.10125 -19.96601,9.10962 -25.04678,18.65754 -5.07797,9.53343 -5.65087,21.35168 -1.45095,31.38761 4.60658,16.95294 21.39998,30.05383 30.12206,33.76236 12.10074,5.08408 26.14851,5.4503 38.54529,0.80479 12.39524,-4.65874 22.86501,-14.28235 28.44532,-26.42241 6.05108,-13.28932 6.10238,-28.86302 1.20571,-42.56188 0,-1e-5 0,-1e-5 -10e-6,-2e-5 -3.72372,-10.44027 -10.09892,-19.82195 -18.09216,-27.43225 -7.9881,-7.60564 -17.49539,-13.48316 -27.63701,-17.6409 -20.54364,-8.38637 -43.2249,-9.92213 -64.98528,-7.66991 -26.40215,2.67147 -51.91359,11.37753 -75.34556,24.04868 z"
         style="fill:#2c6700;fill-opacity:1;fill-rule:evenodd;stroke:none" />
      <path
         sodipodi:nodetypes="ccccccccccccccccccccccccccccccccccccccccc"
         inkscape:connector-curvature="0"
         id="path3834"
         d="m 467.91411,270.38019 1.29274,3.77864 c 6.23606,-2.69337 15.43308,-4.6851 22.27736,-3.9199 6.845,0.75989 16.38127,4.14248 22.02432,8.2525 l 1e-5,0 c 3.61088,2.65101 7.76383,7.56145 9.95503,11.30798 l 10e-6,10e-6 c 2.18135,3.73192 3.46838,11.95573 3.32927,16.17599 -0.0922,4.58964 -3.10866,10.13001 -5.97512,14.01182 l -10e-6,10e-6 c -2.87799,3.89578 -8.18037,7.09375 -12.64442,9.43685 -3.83612,1.99151 -9.40416,3.38726 -13.65709,3.85504 -4.2471,0.46689 -9.54571,-0.37673 -13.51245,-1.91211 l -10e-6,-1e-5 c -3.95983,-1.53111 -7.99334,-5.30353 -10.44048,-8.77958 -2.44457,-3.46606 -3.81739,-8.78322 -3.4594,-13.03989 l 1e-5,-1e-5 c 0.33008,-4.07286 2.84001,-8.42837 5.83211,-11.32209 2.98932,-2.89674 7.77811,-4.65309 12.01197,-4.85983 l 10e-6,10e-6 c 4.23377,-0.20947 8.59093,1.74781 11.9704,4.43126 3.38036,2.6824 5.77692,6.65658 6.5624,10.97746 -0.58418,-4.35266 -2.80462,-8.50938 -6.17108,-11.44722 -3.36733,-2.9368 -7.84469,-4.62294 -12.38918,-4.61228 l -10e-6,-10e-6 c -4.54443,0.0134 -9.08949,1.72331 -12.55682,4.77788 -3.46454,3.05762 -5.78793,7.40331 -6.39106,12.06175 -0.61689,4.86459 0.62424,9.89934 3.28823,14.05236 2.66223,4.14418 6.62559,7.38483 11.14368,9.36068 l 10e-6,0 c 4.51199,1.97188 9.49834,2.73113 14.39243,2.40544 4.88868,-0.32483 9.66202,-1.66568 14.06426,-3.7148 5.15015,-2.37236 9.93805,-5.7969 13.67461,-10.32228 l 0,-1e-5 c 3.74719,-4.53821 6.26758,-10.22171 6.75179,-16.32341 0.39095,-5.61199 -0.96066,-11.20707 -3.56452,-16.08072 l 0,-10e-6 c -2.59447,-4.85988 -6.26469,-9.01357 -10.46535,-12.3586 l -10e-6,-10e-6 c -6.52951,-5.23347 -14.43237,-8.74747 -22.78908,-10.08039 -8.35744,-1.3276 -16.54613,0.87418 -24.55456,3.88748 z"
         style="fill:#2c6700;fill-opacity:1;fill-rule:evenodd;stroke:none" />
      <path
         sodipodi:nodetypes="ccccccccccccccccccccccccccccccccccccccccc"
         inkscape:connector-curvature="0"
         id="path3834-3"
         d="m 212.5499,277.6568 1.29274,-3.77864 c 6.23606,2.69337 15.43308,4.6851 22.27736,3.9199 6.845,-0.75989 16.38127,-4.14248 22.02432,-8.2525 l 1e-5,0 c 3.61088,-2.65101 7.76383,-7.56145 9.95503,-11.30798 l 1e-5,-10e-6 c 2.18135,-3.73192 3.46838,-11.95573 3.32927,-16.17599 -0.0922,-4.58964 -3.10866,-10.13001 -5.97512,-14.01182 l -1e-5,-1e-5 c -2.87799,-3.89578 -8.18037,-7.09375 -12.64442,-9.43685 -3.83612,-1.99151 -9.40416,-3.38726 -13.65709,-3.85504 -4.2471,-0.46689 -9.54571,0.37673 -13.51245,1.91211 l -1e-5,1e-5 c -3.95983,1.53111 -7.99334,5.30353 -10.44048,8.77958 -2.44457,3.46606 -3.81739,8.78322 -3.4594,13.03989 l 1e-5,1e-5 c 0.33008,4.07286 2.84001,8.42837 5.83211,11.32209 2.98932,2.89674 7.77811,4.65309 12.01197,4.85983 l 1e-5,-1e-5 c 4.23377,0.20947 8.59093,-1.74781 11.9704,-4.43126 3.38036,-2.6824 5.77692,-6.65658 6.5624,-10.97746 -0.58418,4.35266 -2.80462,8.50938 -6.17108,11.44722 -3.36733,2.9368 -7.84469,4.62294 -12.38918,4.61228 l -1e-5,1e-5 c -4.54443,-0.0134 -9.08949,-1.72331 -12.55682,-4.77788 -3.46454,-3.05762 -5.78793,-7.40331 -6.39106,-12.06175 -0.61689,-4.86459 0.62424,-9.89934 3.28823,-14.05236 2.66223,-4.14418 6.62559,-7.38483 11.14368,-9.36068 l 1e-5,0 c 4.51199,-1.97188 9.49834,-2.73113 14.39243,-2.40544 4.88868,0.32483 9.66202,1.66568 14.06426,3.7148 5.15015,2.37236 9.93805,5.7969 13.67461,10.32228 l 0,1e-5 c 3.74719,4.53821 6.26758,10.22171 6.75179,16.32341 0.39095,5.61199 -0.96066,11.20707 -3.56452,16.08072 l 0,10e-6 c -2.59447,4.85988 -6.26469,9.01357 -10.46535,12.3586 l -1e-5,10e-6 c -6.52951,5.23347 -14.43237,8.74747 -22.78908,10.08039 -8.35744,1.3276 -16.54613,-0.87418 -24.55456,-3.88748 z"
         style="fill:#2c6700;fill-opacity:1;fill-rule:evenodd;stroke:none" />
      <path
         sodipodi:nodetypes="ccccccccccccccccccccccccccccccccccccccccc"
         inkscape:connector-curvature="0"
         id="path3834-0"
         d="m 254.74111,317.15078 -0.34558,1.58613 c 2.73547,0.37561 6.35301,1.61832 8.5722,3.32471 2.22056,1.70468 4.82514,4.8878 5.92272,7.50461 l 0,0 c 0.69788,1.68179 1.10881,4.2634 1.08244,6.02742 l 0,10e-6 c -0.0267,1.75687 -1.30971,4.88767 -2.24618,6.32606 -0.99788,1.57672 -3.21279,2.86871 -5.02651,3.61547 l -10e-6,10e-6 c -1.82067,0.74919 -4.33763,0.74553 -6.38314,0.621 -1.75316,-0.11468 -3.98325,-0.80098 -5.56071,-1.53327 -1.57525,-0.73137 -3.2404,-2.13976 -4.29681,-3.50845 l 0,-1e-5 c -1.0549,-1.36575 -1.66377,-3.52646 -1.78333,-5.25028 -0.12076,-1.7198 0.52073,-3.85782 1.54098,-5.26281 l 10e-6,0 c 0.97186,-1.34695 2.76128,-2.33347 4.41077,-2.71017 1.64916,-0.37833 3.68413,0.0186 5.20003,0.83764 l 1e-5,10e-6 c 1.51644,0.81808 2.61984,2.41565 3.23041,4.06002 0.61111,1.6442 0.60825,3.5306 -0.0278,5.19855 0.71279,-1.63664 0.81531,-3.54947 0.26279,-5.27956 -0.55304,-1.72993 -1.7553,-3.2585 -3.33796,-4.21111 l 0,0 c -1.58322,-0.95165 -3.52367,-1.31344 -5.37227,-0.9808 -1.84829,0.33428 -3.57076,1.35664 -4.76081,2.84977 -1.23821,1.56193 -1.86607,3.57402 -1.81356,5.5789 0.0538,2.00143 0.75014,3.96245 1.90559,5.60034 l 1e-5,0 c 1.15416,1.63524 2.72847,2.94858 4.49901,3.8652 1.76848,0.91578 3.71065,1.45395 5.6728,1.66772 2.29028,0.25874 4.676,0.0753 6.92774,-0.71214 l 0,0 c 2.25814,-0.7897 4.33066,-2.23586 5.78305,-4.25593 1.31692,-1.86939 2.02427,-4.0996 2.14432,-6.34244 l 0,0 c 0.12042,-2.23607 -0.28188,-4.45292 -1.03882,-6.50017 l -10e-6,-10e-6 c -1.16944,-3.19406 -3.17832,-6.07915 -5.80402,-8.30123 -2.62706,-2.22039 -5.93815,-3.17786 -9.35731,-3.81519 z"
         style="fill:#2c6700;fill-opacity:1;fill-rule:evenodd;stroke:none" />
      <path
         sodipodi:nodetypes="ccccccccccccccccccccccccccccccccc"
         inkscape:connector-curvature="0"
         id="path3808-3"
         d="m 507.71946,228.10907 3.41529,-1.42755 c 8.56286,-3.29165 16.25986,-9.05154 21.56671,-15.95613 2.82386,-5.2237 1.52943,-8.10486 2.32289,-13.67644 0.80965,-5.5643 1.1123,-11.05557 1.87217,-16.39552 l 0,0 c 0.77331,-5.33388 1.97766,-10.59661 4.45709,-15.22432 2.47641,-4.60611 6.26344,-8.67079 11.0832,-10.58392 2.80824,-1.12695 5.94183,-1.53199 8.94536,-1.03168 l 0,1e-5 c 2.32785,0.39311 4.59877,1.31958 6.33244,2.88831 1.7265,1.56109 2.93874,3.79369 3.01492,6.12602 l 0,0 c 0.0588,1.6791 -0.46391,3.41386 -1.55104,4.71052 -1.08221,1.29444 -2.74959,2.15491 -4.46068,2.15909 -1.8091,0.0105 -3.64147,-0.96379 -4.6556,-2.51625 -1.01589,-1.55136 -1.19751,-3.65909 -0.42816,-5.39598 -0.84573,1.701 -0.77715,3.85574 0.21318,5.52971 0.99209,1.67288 2.87249,2.80732 4.86111,2.8888 1.87595,0.0713 3.75057,-0.76909 5.03114,-2.17438 0,-1e-5 0,-1e-5 1e-5,-1e-5 1.27655,-1.40411 1.96227,-3.30457 1.9747,-5.21422 -10e-6,-1e-5 -10e-6,-1e-5 0,-1e-5 0.0118,-2.64504 -1.20053,-5.2186 -3.09667,-7.07142 -1.89049,-1.8466 -4.36341,-3.01512 -6.92823,-3.5498 l 0,0 c -3.29846,-0.69472 -6.78426,-0.41841 -9.98164,0.70753 -5.46532,1.94511 -9.89569,6.18199 -12.80203,11.15162 -2.90501,4.95102 -4.48525,10.5158 -5.50245,16.02343 l 0,1e-5 c -1.03069,5.50182 -1.57985,10.99159 -2.59277,16.26372 -1.02905,5.26458 -0.29333,9.53914 -2.45047,14.09013 -1.64931,5.50283 -12.03514,16.92496 -20.64047,17.67873 z"
         style="fill:#2c6700;fill-opacity:1;fill-rule:evenodd;stroke:none" />
      <path
         sodipodi:nodetypes="cccccccccccccccccccccccccccccccccccccccccccccccccccccc"
         inkscape:connector-curvature="0"
         id="path3884"
         d="m 386.34143,285.94364 0.61665,2.85539 c 19.74584,-8.25303 35.98955,-22.53086 43.88226,-42.18338 2.53216,-6.22494 4.39737,-12.4676 4.36702,-19.52403 -0.1186,-8.27496 -2.57563,-16.3545 -6.64537,-23.21678 l -10e-6,-1e-5 c -2.38512,-4.03234 -5.80235,-7.44233 -8.18232,-10.96209 l 0,0 c -2.32334,-3.49162 -4.83233,-6.96491 -5.8715,-10.61467 -1.31126,-4.38824 -0.97563,-9.25653 0.23991,-13.8072 1.21631,-4.56042 3.93373,-9.69541 7.13098,-13.32731 l 0,-1e-5 c 3.68756,-4.16866 9.6837,-8.59694 14.92069,-10.48804 5.23197,-1.8925 11.71989,-1.98194 17.18589,-0.89281 5.46228,1.08442 11.36845,4.19319 15.32593,8.13545 3.95746,3.93551 6.57662,10.43187 7.45282,15.9686 l 10e-6,1e-5 c 0.59561,3.75884 0.35379,7.95512 -0.82971,11.56056 l 0,1e-5 c -1.18082,3.60226 -4.14575,6.50837 -7.00231,8.99485 -2.35023,2.07472 -5.28126,3.59392 -8.28613,5.11602 -3.02376,1.51086 -6.18391,3.04607 -9.03211,5.20431 -6.90723,5.28046 -10.84087,14.03476 -10.25807,22.59245 l 0,2e-5 c 0.59851,8.55678 5.68873,16.57025 13.0551,20.73226 l 1e-5,1e-5 c 7.37166,4.15294 16.75986,4.30952 24.18319,0.49905 7.42099,-3.81517 12.6583,-11.48274 13.54529,-19.66232 -1.10469,8.15303 -6.52624,15.56301 -13.83821,19.07319 -7.30964,3.51488 -16.37629,3.06948 -23.22889,-1.0475 -6.85786,-4.10791 -11.42124,-11.83455 -11.7458,-19.70543 l 0,-2e-5 c -0.34026,-7.87 3.55564,-15.8382 9.8567,-20.36907 2.60334,-1.89126 5.64686,-3.24891 8.73144,-4.70551 3.08204,-1.43494 6.25901,-3.0048 9.07016,-5.3067 3.38818,-2.80877 5.94332,-6.55962 7.41725,-10.70261 l 0,-10e-6 c 1.47135,-4.14013 1.88467,-8.61851 1.30675,-12.96307 l 0,-1e-5 c -0.8533,-6.40563 -3.82172,-12.47415 -8.30007,-17.16698 -4.47879,-4.68653 -10.36545,-7.95708 -16.70573,-9.38778 -6.33709,-1.42611 -13.03444,-1.03704 -19.2069,1.01739 -6.16782,2.05597 -11.75603,5.71387 -16.18865,10.47335 -1e-5,1e-5 -1e-5,1e-5 -2e-5,2e-5 -3.86183,4.12956 -6.86791,9.13394 -8.53039,14.66231 -1.66306,5.53748 -1.87645,11.55465 -0.37318,17.27264 1.28917,4.71068 4.70785,8.88473 7.14189,12.65159 l 1e-5,2e-5 c 2.43192,3.82188 5.55411,7.32876 7.52574,10.91696 7.157,6.01189 0,1e-5 10e-6,2e-5 3.32217,6.06715 5.95254,12.53282 5.80108,19.15114 -0.0584,5.65567 -1.74574,12.79857 -4.09157,18.3126 -7.46264,17.30036 -23.46679,32.27321 -40.84309,38.96169 z"
         style="fill:#2c6700;fill-opacity:1;fill-rule:evenodd;stroke:none" />
      <path
         sodipodi:nodetypes="ccccccccccccccccccccccccc"
         inkscape:connector-curvature="0"
         id="path3802-8"
         d="m 307.26584,304.28405 -0.68596,2.79755 c 8.76662,-0.57645 18.08949,-2.6816 26.38463,-6.19576 6.1789,-2.60307 12.22738,-6.11956 16.89961,-11.07498 2.15736,-2.2916 3.99433,-4.89917 5.2057,-7.73231 1.21282,-2.83542 1.75851,-5.89981 1.36819,-8.78445 -0.3913,-2.88776 -1.77097,-5.55803 -3.99932,-7.33525 -2.23218,-1.77788 -5.32426,-2.57755 -8.35241,-1.99681 l -10e-6,10e-6 c -2.55201,0.49354 -4.97571,1.96035 -6.63194,3.98365 l -1e-5,1e-5 c -1.23065,1.50409 -2.03717,3.29901 -2.30332,5.10629 -0.26602,1.80729 0.009,3.61985 0.77502,5.15893 -0.71592,-1.5654 -0.92891,-3.37756 -0.61411,-5.1517 0.31467,-1.77414 1.15664,-3.50793 2.38585,-4.93122 1.65215,-1.91386 4.01784,-3.25099 6.42864,-3.64693 l 0,0 c 2.86049,-0.47468 5.73638,0.38519 7.75327,2.09604 l 0,0 c 2.02229,1.7127 3.21438,4.25955 3.50016,6.94894 0.2869,2.69357 -0.32059,5.54367 -1.51988,8.16223 -1.20096,2.62128 -3.00303,5.0239 -5.09696,7.14307 l -10e-6,0 c -4.53182,4.59391 -10.40475,7.76482 -16.43805,10.14818 -8.12093,3.18875 -16.65969,4.99095 -25.0591,5.30449 z"
         style="fill:#2c6700;fill-opacity:1;fill-rule:evenodd;stroke:none" />
    </g>
  </g>
  <g
     inkscape:groupmode="layer"
     id="layer3"
     inkscape:label="Pattern" />
</svg>
