<?xml version="1.0" encoding="UTF-8" standalone="no"?>
<!-- Created with Inkscape (http://www.inkscape.org/) -->

<svg
   xmlns:dc="http://purl.org/dc/elements/1.1/"
   xmlns:cc="http://creativecommons.org/ns#"
   xmlns:rdf="http://www.w3.org/1999/02/22-rdf-syntax-ns#"
   xmlns:svg="http://www.w3.org/2000/svg"
   xmlns="http://www.w3.org/2000/svg"
   xmlns:sodipodi="http://sodipodi.sourceforge.net/DTD/sodipodi-0.dtd"
   xmlns:inkscape="http://www.inkscape.org/namespaces/inkscape"
   width="744.09448819"
   height="1052.3622047"
   id="svg3108"
   version="1.1"
   inkscape:version="0.48.2 r9819"
   sodipodi:docname="New document 4">
  <defs
     id="defs3110">
    <inkscape:path-effect
       effect="spiro"
       id="path-effect3811-7-0"
       is_visible="true" />
  </defs>
  <sodipodi:namedview
     id="base"
     pagecolor="#ffffff"
     bordercolor="#666666"
     borderopacity="1.0"
     inkscape:pageopacity="0.0"
     inkscape:pageshadow="2"
     inkscape:zoom="1.8704651"
     inkscape:cx="422.90439"
     inkscape:cy="511.42857"
     inkscape:document-units="px"
     inkscape:current-layer="layer1"
     showgrid="false"
     inkscape:window-width="1280"
     inkscape:window-height="752"
     inkscape:window-x="0"
     inkscape:window-y="0"
     inkscape:window-maximized="1" />
  <metadata
     id="metadata3113">
    <rdf:RDF>
      <cc:Work
         rdf:about="">
        <dc:format>image/svg+xml</dc:format>
        <dc:type
           rdf:resource="http://purl.org/dc/dcmitype/StillImage" />
        <dc:title></dc:title>
      </cc:Work>
    </rdf:RDF>
  </metadata>
  <g
     inkscape:label="Layer 1"
     inkscape:groupmode="layer"
     id="layer1">
    <g
       id="g3156">
      <text
         transform="scale(1.0641934,0.93967883)"
         sodipodi:linespacing="125%"
         id="text3807"
         y="560.32251"
         x="319.0321"
         style="font-size:22.30746078px;font-style:normal;font-variant:normal;font-weight:normal;font-stretch:normal;line-height:125%;letter-spacing:0px;word-spacing:0px;fill:#000000;fill-opacity:1;stroke:none;font-family:Aclonica;-inkscape-font-specification:Aclonica"
         xml:space="preserve"><tspan
           style="font-size:48px"
           y="560.32251"
           x="319.0321"
           id="tspan3809"
           sodipodi:role="line">Nirman</tspan></text>
      <text
         transform="scale(1.0641934,0.93967883)"
         sodipodi:linespacing="125%"
         id="text3807-5"
         y="609.99237"
         x="320.95398"
         style="font-size:22.30746078px;font-style:normal;font-variant:normal;font-weight:normal;font-stretch:normal;line-height:125%;letter-spacing:0px;word-spacing:0px;fill:#000000;fill-opacity:1;stroke:none;font-family:Aclonica;-inkscape-font-specification:Aclonica"
         xml:space="preserve"><tspan
           style="font-size:48px"
           y="609.99237"
           x="320.95398"
           id="tspan3809-9"
           sodipodi:role="line">Craft</tspan></text>
      <path
         sodipodi:nodetypes="cccccscscscscscscscscscscscscccc"
         inkscape:connector-curvature="0"
         inkscape:original-d="m 251.96204,489.0468 c 2.86274,-0.16773 11.14149,-0.11446 14.75925,0.0972 8.78083,0.51375 17.37638,-0.56874 24.69579,-0.0864 7.62831,0.50269 9.43825,-0.12814 17.09385,-0.0995 7.6556,0.0286 13.40025,0.0887 13.40025,0.0887 0,0 12.95354,0 12.95354,12.95354 0,12.95355 0,60.88166 0,60.88166 0,0 0,12.95355 -12.95354,12.95355 -12.95355,0 -44.04205,0 -44.04205,0 0,0 -12.95355,0 -12.95355,-12.95355 0,-12.95354 0,-41.45134 0,-41.45134 0,0 0,-6.47677 6.47677,-6.47677 6.47678,0 31.08851,0 31.08851,0 0,0 6.47677,0 6.47677,6.47677 0,6.47677 0,6.47677 0,6.47677 0,0 0,6.47677 -6.47677,6.47677 -6.47677,0 -11.65819,0 -11.65819,0 0,0 -6.47677,0 -6.47677,6.47678 0,6.47677 0,9.06748 0,9.06748 0,0 0,6.47677 6.47677,6.47677 6.47677,0 18.13496,0 18.13496,0 0,0 6.47678,0 6.47678,-6.47677 0,-6.47677 0,-34.97457 0,-34.97457 0,0 0,-6.47678 -6.47678,-6.47678 -6.47677,0 -44.04205,0 -44.04205,0 0,0 -6.47677,0 -6.47677,6.47678 0,6.47677 0,54.40489 0,54.40489 0,0 0,6.47677 -6.47677,6.47677 -6.47678,0 -6.47678,0 -6.47678,0 -3.16313,0.0647 -6.46972,-3.38537 -6.47677,-6.47677 l 0,-67.35844 c -0.0179,-12.82253 8.91518,-12.75317 12.95355,-12.95354 z"
         inkscape:path-effect="#path-effect3811-7-0"
         id="path3809-1-8"
         d="m 251.96204,489.0468 c 4.91501,-0.24489 9.83926,-0.008 14.75925,0.0972 8.23049,0.17542 16.4637,-0.0198 24.69579,-0.0864 5.69787,-0.0461 11.39621,-0.0305 17.09385,-0.0995 4.46748,-0.0541 8.93937,-0.16 13.40025,0.0887 1.75383,0.0978 3.51723,0.25645 5.20601,0.73967 1.68879,0.48321 3.29638,1.30819 4.57252,2.51524 1.27613,1.20705 2.18729,2.78114 2.66241,4.47222 0.47513,1.69108 0.5126,3.46985 0.5126,5.22641 l 0,60.88166 c 0,1.78381 -0.0242,3.58673 -0.45768,5.31708 -0.43343,1.73036 -1.2869,3.36919 -2.54825,4.63054 -1.26134,1.26134 -2.90017,2.11482 -4.63053,2.54825 -1.73035,0.43343 -3.53327,0.45768 -5.31708,0.45768 l -44.04205,0 c -1.78381,0 -3.58673,-0.0243 -5.31709,-0.45768 -1.73035,-0.43343 -3.36918,-1.2869 -4.63053,-2.54825 -1.26135,-1.26135 -2.11482,-2.90018 -2.54825,-4.63053 -0.43343,-1.73036 -0.45768,-3.53328 -0.45768,-5.31709 l 0,-41.45134 c 0,-0.89191 0.0121,-1.79336 0.22884,-2.65854 0.21671,-0.86518 0.64345,-1.68459 1.27412,-2.31527 0.63068,-0.63067 1.45009,-1.05741 2.31527,-1.27412 0.86518,-0.21672 1.76663,-0.22884 2.65854,-0.22884 l 31.08851,0 c 0.89191,0 1.79336,0.0121 2.65854,0.22884 0.86518,0.21671 1.68459,0.64345 2.31527,1.27412 0.63067,0.63068 1.05741,1.45009 1.27412,2.31527 0.21672,0.86518 0.22884,1.76663 0.22884,2.65854 l 0,6.47677 c 0,0.89191 -0.0121,1.79336 -0.22884,2.65854 -0.21671,0.86518 -0.64345,1.68459 -1.27412,2.31527 -0.63068,0.63067 -1.45009,1.05741 -2.31527,1.27412 -0.86518,0.21672 -1.76663,0.22884 -2.65854,0.22884 l -11.65819,0 c -0.89191,0 -1.79337,0.0121 -2.65854,0.22884 -0.86518,0.21672 -1.6846,0.64345 -2.31527,1.27413 -0.63067,0.63067 -1.05741,1.45009 -1.27412,2.31527 -0.21672,0.86517 -0.22884,1.76663 -0.22884,2.65854 l 0,9.06748 c 0,0.89191 0.0121,1.79336 0.22884,2.65854 0.21671,0.86518 0.64345,1.68459 1.27412,2.31527 0.63068,0.63067 1.45009,1.05741 2.31527,1.27412 0.86518,0.21672 1.76663,0.22884 2.65854,0.22884 l 18.13496,0 c 0.89191,0 1.79337,-0.0121 2.65854,-0.22884 0.86518,-0.21671 1.6846,-0.64345 2.31527,-1.27412 0.63068,-0.63067 1.05741,-1.45009 1.27413,-2.31527 0.21672,-0.86517 0.22884,-1.76663 0.22884,-2.65854 l 0,-34.97457 c 0,-0.89191 -0.0121,-1.79337 -0.22884,-2.65854 -0.21671,-0.86518 -0.64345,-1.6846 -1.27413,-2.31527 -0.63067,-0.63068 -1.45009,-1.05742 -2.31527,-1.27413 -0.86517,-0.21672 -1.76663,-0.22884 -2.65854,-0.22884 l -44.04205,0 c -0.89191,0 -1.79337,0.0121 -2.65854,0.22884 -0.86518,0.21672 -1.6846,0.64345 -2.31527,1.27413 -0.63067,0.63067 -1.05741,1.45009 -1.27412,2.31527 -0.21672,0.86517 -0.22884,1.76663 -0.22884,2.65854 l 0,54.40489 c 0,0.89191 -0.0121,1.79336 -0.22884,2.65854 -0.21671,0.86518 -0.64345,1.68459 -1.27412,2.31527 -0.63068,0.63067 -1.45009,1.05741 -2.31527,1.27412 -0.86518,0.21672 -1.76663,0.22884 -2.65854,0.22884 l -6.47678,0 c -0.89191,0 -1.79336,-0.0121 -2.65854,-0.22884 -0.86518,-0.21671 -1.68459,-0.64345 -2.31527,-1.27412 -0.63067,-0.63068 -1.05741,-1.45009 -1.27412,-2.31527 -0.21672,-0.86518 -0.22884,-1.76663 -0.22884,-2.65854 l 0,-67.35844 c 0,-1.75761 0.0372,-3.53734 0.51127,-5.22983 0.47403,-1.69248 1.38336,-3.26875 2.65858,-4.47831 1.27521,-1.20957 2.88302,-2.03726 4.57302,-2.52007 1.69,-0.4828 3.45524,-0.63786 5.21068,-0.72533"
         style="fill:#92cd00;fill-opacity:1;stroke:none" />
    </g>
  </g>
</svg>
